# xmcd
#
# Track frame offsets: 
#        150
#        24855
#        36316
#        53940
#        72735
#        85740
#        106326
#        125912
#        139760
#        157049
#        176763
#        191518
#        213563
#        225677
#        241527
#        260939
#        274520
#        292725
#        303850
#        320585
#
# Disc length: 4575 seconds
#
# Revision: 1
# Processed by: cddbd v1.5.2PL0 Copyright (c) Steve Scherf et al.
# Submitted via: ExactAudioCopy v1.3
#
DISCID=2611dd14
DTITLE=Various Artist - 100 Op 1 De Beste Belgen - CD2
DYEAR=2015
DGENRE=Pop-Folk
TTITLE0=dEUS - Nothing Really Ends
TTITLE1=Kris De Bruyne - Amsterdam
TTITLE2=Axelle Red - Rouge Ardent
TTITLE3=Johan Verminnen - Laat Me Nu Toch Niet Alleen
TTITLE4=Daan - Icon
TTITLE5=Luna Twist - African Time
TTITLE6=Hugo Raspoet - Helena
TTITLE7=Gorki - Anja
TTITLE8=Intergalactic Lovers - Delay
TTITLE9=TC Matic - Putain Putain
TTITLE10=Superdiesel - Ticket Naar De Zon
TTITLE11=Arsenal - Melvin
TTITLE12=De Held - Twee Jonge Meisjes
TTITLE13=The Bet - Don't Talk To The Liar
TTITLE14=De Nieuwe Snaar - In De Hemel Is Geen Dylan
TTITLE15=Flip Kowlier - Min Moaten
TTITLE16=Stash - Sadness
TTITLE17=Will Tura - Eenzaam Zonder Jou
TTITLE18=Hooverphonic - Mad About You
TTITLE19=Wallace Collection - Daydream
EXTD=
EXTT0=
EXTT1=
EXTT2=
EXTT3=
EXTT4=
EXTT5=
EXTT6=
EXTT7=
EXTT8=
EXTT9=
EXTT10=
EXTT11=
EXTT12=
EXTT13=
EXTT14=
EXTT15=
EXTT16=
EXTT17=
EXTT18=
EXTT19=
PLAYORDER=
